%TF.GenerationSoftware,KiCad,Pcbnew,5.1.9-73d0e3b20d~88~ubuntu20.04.1*%
%TF.CreationDate,2021-04-17T15:00:08+02:00*%
%TF.ProjectId,e18sock,65313873-6f63-46b2-9e6b-696361645f70,rev?*%
%TF.SameCoordinates,Original*%
%TF.FileFunction,Other,Comment*%
%FSLAX46Y46*%
G04 Gerber Fmt 4.6, Leading zero omitted, Abs format (unit mm)*
G04 Created by KiCad (PCBNEW 5.1.9-73d0e3b20d~88~ubuntu20.04.1) date 2021-04-17 15:00:08*
%MOMM*%
%LPD*%
G01*
G04 APERTURE LIST*
%ADD10C,0.060000*%
%ADD11C,0.150000*%
G04 APERTURE END LIST*
%TO.C,E-18-MS1-PCB*%
D10*
X128200476Y-32550952D02*
X128162380Y-32531904D01*
X128143333Y-32512857D01*
X128124285Y-32474761D01*
X128124285Y-32360476D01*
X128143333Y-32322380D01*
X128162380Y-32303333D01*
X128200476Y-32284285D01*
X128257619Y-32284285D01*
X128295714Y-32303333D01*
X128314761Y-32322380D01*
X128333809Y-32360476D01*
X128333809Y-32474761D01*
X128314761Y-32512857D01*
X128295714Y-32531904D01*
X128257619Y-32550952D01*
X128200476Y-32550952D01*
X128505238Y-32284285D02*
X128505238Y-32550952D01*
X128505238Y-32322380D02*
X128524285Y-32303333D01*
X128562380Y-32284285D01*
X128619523Y-32284285D01*
X128657619Y-32303333D01*
X128676666Y-32341428D01*
X128676666Y-32550952D01*
X129343333Y-32550952D02*
X129343333Y-32341428D01*
X129324285Y-32303333D01*
X129286190Y-32284285D01*
X129210000Y-32284285D01*
X129171904Y-32303333D01*
X129343333Y-32531904D02*
X129305238Y-32550952D01*
X129210000Y-32550952D01*
X129171904Y-32531904D01*
X129152857Y-32493809D01*
X129152857Y-32455714D01*
X129171904Y-32417619D01*
X129210000Y-32398571D01*
X129305238Y-32398571D01*
X129343333Y-32379523D01*
X129533809Y-32284285D02*
X129533809Y-32550952D01*
X129533809Y-32322380D02*
X129552857Y-32303333D01*
X129590952Y-32284285D01*
X129648095Y-32284285D01*
X129686190Y-32303333D01*
X129705238Y-32341428D01*
X129705238Y-32550952D01*
X129857619Y-32284285D02*
X129952857Y-32550952D01*
X130048095Y-32284285D02*
X129952857Y-32550952D01*
X129914761Y-32646190D01*
X129895714Y-32665238D01*
X129857619Y-32684285D01*
X130505238Y-32550952D02*
X130505238Y-32150952D01*
X130657619Y-32150952D01*
X130695714Y-32170000D01*
X130714761Y-32189047D01*
X130733809Y-32227142D01*
X130733809Y-32284285D01*
X130714761Y-32322380D01*
X130695714Y-32341428D01*
X130657619Y-32360476D01*
X130505238Y-32360476D01*
X131133809Y-32512857D02*
X131114761Y-32531904D01*
X131057619Y-32550952D01*
X131019523Y-32550952D01*
X130962380Y-32531904D01*
X130924285Y-32493809D01*
X130905238Y-32455714D01*
X130886190Y-32379523D01*
X130886190Y-32322380D01*
X130905238Y-32246190D01*
X130924285Y-32208095D01*
X130962380Y-32170000D01*
X131019523Y-32150952D01*
X131057619Y-32150952D01*
X131114761Y-32170000D01*
X131133809Y-32189047D01*
X131438571Y-32341428D02*
X131495714Y-32360476D01*
X131514761Y-32379523D01*
X131533809Y-32417619D01*
X131533809Y-32474761D01*
X131514761Y-32512857D01*
X131495714Y-32531904D01*
X131457619Y-32550952D01*
X131305238Y-32550952D01*
X131305238Y-32150952D01*
X131438571Y-32150952D01*
X131476666Y-32170000D01*
X131495714Y-32189047D01*
X131514761Y-32227142D01*
X131514761Y-32265238D01*
X131495714Y-32303333D01*
X131476666Y-32322380D01*
X131438571Y-32341428D01*
X131305238Y-32341428D01*
X132067142Y-32550952D02*
X132029047Y-32531904D01*
X132010000Y-32493809D01*
X132010000Y-32150952D01*
X132390952Y-32550952D02*
X132390952Y-32341428D01*
X132371904Y-32303333D01*
X132333809Y-32284285D01*
X132257619Y-32284285D01*
X132219523Y-32303333D01*
X132390952Y-32531904D02*
X132352857Y-32550952D01*
X132257619Y-32550952D01*
X132219523Y-32531904D01*
X132200476Y-32493809D01*
X132200476Y-32455714D01*
X132219523Y-32417619D01*
X132257619Y-32398571D01*
X132352857Y-32398571D01*
X132390952Y-32379523D01*
X132543333Y-32284285D02*
X132638571Y-32550952D01*
X132733809Y-32284285D02*
X132638571Y-32550952D01*
X132600476Y-32646190D01*
X132581428Y-32665238D01*
X132543333Y-32684285D01*
X133038571Y-32531904D02*
X133000476Y-32550952D01*
X132924285Y-32550952D01*
X132886190Y-32531904D01*
X132867142Y-32493809D01*
X132867142Y-32341428D01*
X132886190Y-32303333D01*
X132924285Y-32284285D01*
X133000476Y-32284285D01*
X133038571Y-32303333D01*
X133057619Y-32341428D01*
X133057619Y-32379523D01*
X132867142Y-32417619D01*
X133229047Y-32550952D02*
X133229047Y-32284285D01*
X133229047Y-32360476D02*
X133248095Y-32322380D01*
X133267142Y-32303333D01*
X133305238Y-32284285D01*
X133343333Y-32284285D01*
X133476666Y-32512857D02*
X133495714Y-32531904D01*
X133476666Y-32550952D01*
X133457619Y-32531904D01*
X133476666Y-32512857D01*
X133476666Y-32550952D01*
X125857619Y-31550952D02*
X125857619Y-31150952D01*
X126086190Y-31550952D01*
X126086190Y-31150952D01*
X126333809Y-31550952D02*
X126295714Y-31531904D01*
X126276666Y-31512857D01*
X126257619Y-31474761D01*
X126257619Y-31360476D01*
X126276666Y-31322380D01*
X126295714Y-31303333D01*
X126333809Y-31284285D01*
X126390952Y-31284285D01*
X126429047Y-31303333D01*
X126448095Y-31322380D01*
X126467142Y-31360476D01*
X126467142Y-31474761D01*
X126448095Y-31512857D01*
X126429047Y-31531904D01*
X126390952Y-31550952D01*
X126333809Y-31550952D01*
X126943333Y-31550952D02*
X126943333Y-31284285D01*
X126943333Y-31322380D02*
X126962380Y-31303333D01*
X127000476Y-31284285D01*
X127057619Y-31284285D01*
X127095714Y-31303333D01*
X127114761Y-31341428D01*
X127114761Y-31550952D01*
X127114761Y-31341428D02*
X127133809Y-31303333D01*
X127171904Y-31284285D01*
X127229047Y-31284285D01*
X127267142Y-31303333D01*
X127286190Y-31341428D01*
X127286190Y-31550952D01*
X127629047Y-31531904D02*
X127590952Y-31550952D01*
X127514761Y-31550952D01*
X127476666Y-31531904D01*
X127457619Y-31493809D01*
X127457619Y-31341428D01*
X127476666Y-31303333D01*
X127514761Y-31284285D01*
X127590952Y-31284285D01*
X127629047Y-31303333D01*
X127648095Y-31341428D01*
X127648095Y-31379523D01*
X127457619Y-31417619D01*
X127762380Y-31284285D02*
X127914761Y-31284285D01*
X127819523Y-31150952D02*
X127819523Y-31493809D01*
X127838571Y-31531904D01*
X127876666Y-31550952D01*
X127914761Y-31550952D01*
X128219523Y-31550952D02*
X128219523Y-31341428D01*
X128200476Y-31303333D01*
X128162380Y-31284285D01*
X128086190Y-31284285D01*
X128048095Y-31303333D01*
X128219523Y-31531904D02*
X128181428Y-31550952D01*
X128086190Y-31550952D01*
X128048095Y-31531904D01*
X128029047Y-31493809D01*
X128029047Y-31455714D01*
X128048095Y-31417619D01*
X128086190Y-31398571D01*
X128181428Y-31398571D01*
X128219523Y-31379523D01*
X128467142Y-31550952D02*
X128429047Y-31531904D01*
X128410000Y-31493809D01*
X128410000Y-31150952D01*
X128638571Y-31531904D02*
X128638571Y-31550952D01*
X128619523Y-31589047D01*
X128600476Y-31608095D01*
X129057619Y-31284285D02*
X129210000Y-31284285D01*
X129114761Y-31150952D02*
X129114761Y-31493809D01*
X129133809Y-31531904D01*
X129171904Y-31550952D01*
X129210000Y-31550952D01*
X129343333Y-31550952D02*
X129343333Y-31284285D01*
X129343333Y-31360476D02*
X129362380Y-31322380D01*
X129381428Y-31303333D01*
X129419523Y-31284285D01*
X129457619Y-31284285D01*
X129762380Y-31550952D02*
X129762380Y-31341428D01*
X129743333Y-31303333D01*
X129705238Y-31284285D01*
X129629047Y-31284285D01*
X129590952Y-31303333D01*
X129762380Y-31531904D02*
X129724285Y-31550952D01*
X129629047Y-31550952D01*
X129590952Y-31531904D01*
X129571904Y-31493809D01*
X129571904Y-31455714D01*
X129590952Y-31417619D01*
X129629047Y-31398571D01*
X129724285Y-31398571D01*
X129762380Y-31379523D01*
X130124285Y-31531904D02*
X130086190Y-31550952D01*
X130010000Y-31550952D01*
X129971904Y-31531904D01*
X129952857Y-31512857D01*
X129933809Y-31474761D01*
X129933809Y-31360476D01*
X129952857Y-31322380D01*
X129971904Y-31303333D01*
X130010000Y-31284285D01*
X130086190Y-31284285D01*
X130124285Y-31303333D01*
X130448095Y-31531904D02*
X130410000Y-31550952D01*
X130333809Y-31550952D01*
X130295714Y-31531904D01*
X130276666Y-31493809D01*
X130276666Y-31341428D01*
X130295714Y-31303333D01*
X130333809Y-31284285D01*
X130410000Y-31284285D01*
X130448095Y-31303333D01*
X130467142Y-31341428D01*
X130467142Y-31379523D01*
X130276666Y-31417619D01*
X130619523Y-31531904D02*
X130657619Y-31550952D01*
X130733809Y-31550952D01*
X130771904Y-31531904D01*
X130790952Y-31493809D01*
X130790952Y-31474761D01*
X130771904Y-31436666D01*
X130733809Y-31417619D01*
X130676666Y-31417619D01*
X130638571Y-31398571D01*
X130619523Y-31360476D01*
X130619523Y-31341428D01*
X130638571Y-31303333D01*
X130676666Y-31284285D01*
X130733809Y-31284285D01*
X130771904Y-31303333D01*
X130981428Y-31531904D02*
X130981428Y-31550952D01*
X130962380Y-31589047D01*
X130943333Y-31608095D01*
X131514761Y-31550952D02*
X131476666Y-31531904D01*
X131457619Y-31512857D01*
X131438571Y-31474761D01*
X131438571Y-31360476D01*
X131457619Y-31322380D01*
X131476666Y-31303333D01*
X131514761Y-31284285D01*
X131571904Y-31284285D01*
X131610000Y-31303333D01*
X131629047Y-31322380D01*
X131648095Y-31360476D01*
X131648095Y-31474761D01*
X131629047Y-31512857D01*
X131610000Y-31531904D01*
X131571904Y-31550952D01*
X131514761Y-31550952D01*
X131819523Y-31550952D02*
X131819523Y-31284285D01*
X131819523Y-31360476D02*
X131838571Y-31322380D01*
X131857619Y-31303333D01*
X131895714Y-31284285D01*
X131933809Y-31284285D01*
X132543333Y-31531904D02*
X132505238Y-31550952D01*
X132429047Y-31550952D01*
X132390952Y-31531904D01*
X132371904Y-31512857D01*
X132352857Y-31474761D01*
X132352857Y-31360476D01*
X132371904Y-31322380D01*
X132390952Y-31303333D01*
X132429047Y-31284285D01*
X132505238Y-31284285D01*
X132543333Y-31303333D01*
X132771904Y-31550952D02*
X132733809Y-31531904D01*
X132714761Y-31512857D01*
X132695714Y-31474761D01*
X132695714Y-31360476D01*
X132714761Y-31322380D01*
X132733809Y-31303333D01*
X132771904Y-31284285D01*
X132829047Y-31284285D01*
X132867142Y-31303333D01*
X132886190Y-31322380D01*
X132905238Y-31360476D01*
X132905238Y-31474761D01*
X132886190Y-31512857D01*
X132867142Y-31531904D01*
X132829047Y-31550952D01*
X132771904Y-31550952D01*
X133076666Y-31550952D02*
X133076666Y-31284285D01*
X133076666Y-31322380D02*
X133095714Y-31303333D01*
X133133809Y-31284285D01*
X133190952Y-31284285D01*
X133229047Y-31303333D01*
X133248095Y-31341428D01*
X133248095Y-31550952D01*
X133248095Y-31341428D02*
X133267142Y-31303333D01*
X133305238Y-31284285D01*
X133362380Y-31284285D01*
X133400476Y-31303333D01*
X133419523Y-31341428D01*
X133419523Y-31550952D01*
X133610000Y-31284285D02*
X133610000Y-31684285D01*
X133610000Y-31303333D02*
X133648095Y-31284285D01*
X133724285Y-31284285D01*
X133762380Y-31303333D01*
X133781428Y-31322380D01*
X133800476Y-31360476D01*
X133800476Y-31474761D01*
X133781428Y-31512857D01*
X133762380Y-31531904D01*
X133724285Y-31550952D01*
X133648095Y-31550952D01*
X133610000Y-31531904D01*
X134029047Y-31550952D02*
X133990952Y-31531904D01*
X133971904Y-31512857D01*
X133952857Y-31474761D01*
X133952857Y-31360476D01*
X133971904Y-31322380D01*
X133990952Y-31303333D01*
X134029047Y-31284285D01*
X134086190Y-31284285D01*
X134124285Y-31303333D01*
X134143333Y-31322380D01*
X134162380Y-31360476D01*
X134162380Y-31474761D01*
X134143333Y-31512857D01*
X134124285Y-31531904D01*
X134086190Y-31550952D01*
X134029047Y-31550952D01*
X134333809Y-31284285D02*
X134333809Y-31550952D01*
X134333809Y-31322380D02*
X134352857Y-31303333D01*
X134390952Y-31284285D01*
X134448095Y-31284285D01*
X134486190Y-31303333D01*
X134505238Y-31341428D01*
X134505238Y-31550952D01*
X134848095Y-31531904D02*
X134810000Y-31550952D01*
X134733809Y-31550952D01*
X134695714Y-31531904D01*
X134676666Y-31493809D01*
X134676666Y-31341428D01*
X134695714Y-31303333D01*
X134733809Y-31284285D01*
X134810000Y-31284285D01*
X134848095Y-31303333D01*
X134867142Y-31341428D01*
X134867142Y-31379523D01*
X134676666Y-31417619D01*
X135038571Y-31284285D02*
X135038571Y-31550952D01*
X135038571Y-31322380D02*
X135057619Y-31303333D01*
X135095714Y-31284285D01*
X135152857Y-31284285D01*
X135190952Y-31303333D01*
X135210000Y-31341428D01*
X135210000Y-31550952D01*
X135343333Y-31284285D02*
X135495714Y-31284285D01*
X135400476Y-31150952D02*
X135400476Y-31493809D01*
X135419523Y-31531904D01*
X135457619Y-31550952D01*
X135495714Y-31550952D01*
X135610000Y-31531904D02*
X135648095Y-31550952D01*
X135724285Y-31550952D01*
X135762380Y-31531904D01*
X135781428Y-31493809D01*
X135781428Y-31474761D01*
X135762380Y-31436666D01*
X135724285Y-31417619D01*
X135667142Y-31417619D01*
X135629047Y-31398571D01*
X135610000Y-31360476D01*
X135610000Y-31341428D01*
X135629047Y-31303333D01*
X135667142Y-31284285D01*
X135724285Y-31284285D01*
X135762380Y-31303333D01*
D11*
X124738571Y-29822380D02*
X124738571Y-28822380D01*
X125310000Y-29822380D02*
X124881428Y-29250952D01*
X125310000Y-28822380D02*
X124738571Y-29393809D01*
X125738571Y-29298571D02*
X126071904Y-29298571D01*
X126214761Y-29822380D02*
X125738571Y-29822380D01*
X125738571Y-28822380D01*
X126214761Y-28822380D01*
X126643333Y-29298571D02*
X126976666Y-29298571D01*
X127119523Y-29822380D02*
X126643333Y-29822380D01*
X126643333Y-28822380D01*
X127119523Y-28822380D01*
X127548095Y-29822380D02*
X127548095Y-28822380D01*
X127929047Y-28822380D01*
X128024285Y-28870000D01*
X128071904Y-28917619D01*
X128119523Y-29012857D01*
X128119523Y-29155714D01*
X128071904Y-29250952D01*
X128024285Y-29298571D01*
X127929047Y-29346190D01*
X127548095Y-29346190D01*
X128548095Y-29441428D02*
X129310000Y-29441428D01*
X129976666Y-28822380D02*
X130167142Y-28822380D01*
X130262380Y-28870000D01*
X130357619Y-28965238D01*
X130405238Y-29155714D01*
X130405238Y-29489047D01*
X130357619Y-29679523D01*
X130262380Y-29774761D01*
X130167142Y-29822380D01*
X129976666Y-29822380D01*
X129881428Y-29774761D01*
X129786190Y-29679523D01*
X129738571Y-29489047D01*
X129738571Y-29155714D01*
X129786190Y-28965238D01*
X129881428Y-28870000D01*
X129976666Y-28822380D01*
X130833809Y-28822380D02*
X130833809Y-29631904D01*
X130881428Y-29727142D01*
X130929047Y-29774761D01*
X131024285Y-29822380D01*
X131214761Y-29822380D01*
X131310000Y-29774761D01*
X131357619Y-29727142D01*
X131405238Y-29631904D01*
X131405238Y-28822380D01*
X131738571Y-28822380D02*
X132310000Y-28822380D01*
X132024285Y-29822380D02*
X132024285Y-28822380D01*
X133310000Y-28822380D02*
X133976666Y-28822380D01*
X133310000Y-29822380D01*
X133976666Y-29822380D01*
X134548095Y-28822380D02*
X134738571Y-28822380D01*
X134833809Y-28870000D01*
X134929047Y-28965238D01*
X134976666Y-29155714D01*
X134976666Y-29489047D01*
X134929047Y-29679523D01*
X134833809Y-29774761D01*
X134738571Y-29822380D01*
X134548095Y-29822380D01*
X134452857Y-29774761D01*
X134357619Y-29679523D01*
X134310000Y-29489047D01*
X134310000Y-29155714D01*
X134357619Y-28965238D01*
X134452857Y-28870000D01*
X134548095Y-28822380D01*
X135405238Y-29822380D02*
X135405238Y-28822380D01*
X135976666Y-29822380D01*
X135976666Y-28822380D01*
X136452857Y-29298571D02*
X136786190Y-29298571D01*
X136929047Y-29822380D02*
X136452857Y-29822380D01*
X136452857Y-28822380D01*
X136929047Y-28822380D01*
%TD*%
M02*
